<mxfile host="app.diagrams.net" modified="2023-11-12T12:27:29.469Z" agent="Mozilla/5.0 (X11; Linux x86_64; rv:109.0) Gecko/20100101 Firefox/119.0" version="22.1.0" etag="hc6K4ga8CdaW2Uv_4aj0" type="github">
  <diagram name="Page-1" id="31JMuPMze3xwCYHXKMTt">
    <mxGraphModel>
      <root>
        <mxCell id="0" />
        <mxCell id="1" parent="0" />
      </root>
    </mxGraphModel>
  </diagram>
</mxfile>
